# xmcd
#
# Track frame offsets: 
#        150
#        26537
#        45719
#        65171
#        99966
#        126751
#        148042
#        173645
#        192467
#        210494
#
# Disc length: 3157 seconds
#
# Revision: 4
# Processed by: cddbd v1.5.2PL0 Copyright (c) Steve Scherf et al.
# Submitted via: ExactAudioCopyFreeDBPlugin 1.0
#
DISCID=8d0c530a
DTITLE=Richard Bargel and Klaus 'Major' Heuser - Men In Blues
DYEAR=2012
DGENRE=Blues
TTITLE0=Don Quijote
TTITLE1=All Talker And Stalker
TTITLE2=The Heat
TTITLE3=Poisoned
TTITLE4=I Got To Start From Zero
TTITLE5=The Devil Can't Stop Me
TTITLE6=How Can I Go On?
TTITLE7=High Speed Train
TTITLE8=Where I Belong
TTITLE9=Wrinkles And Scars
EXTD=
EXTT0=
EXTT1=
EXTT2=
EXTT3=
EXTT4=
EXTT5=
EXTT6=
EXTT7=
EXTT8=
EXTT9=
PLAYORDER=
